<?xml version="1.0" standalone="no"?><!DOCTYPE svg PUBLIC "-//W3C//DTD SVG 1.1//EN" "http://www.w3.org/Graphics/SVG/1.1/DTD/svg11.dtd"><svg t="1774419938799" class="icon" viewBox="0 0 1067 1024" version="1.1" xmlns="http://www.w3.org/2000/svg" p-id="3083" xmlns:xlink="http://www.w3.org/1999/xlink" width="208.3984375" height="200"><path d="M1039.903783 477.287925c53.743011-52.401113 24.087067-143.683718-50.220529-154.485996l-250.263959-36.365434a15.867943 15.867943 0 0 1-12.613841-9.158453l-111.914285-226.780746c-33.211973-67.329728-129.224769-67.329728-162.436742 0l-111.914286 226.780746a15.867943 15.867943 0 0 1-12.647387 9.158453l-250.26396 36.365434C3.354745 333.604207-26.267652 424.886812 27.47536 477.287925l181.089122 176.52667c4.226978 4.092789 5.837256 9.057811 4.830833 14.861519l-42.739449 249.257537c-12.714483 73.972122 64.947859 130.398929 131.405353 95.476036l223.828571-117.684447a15.90149 15.90149 0 0 1 15.633111 0l223.828571 117.684447c66.423946 34.889346 144.119835-21.503914 131.4389-95.509584l-42.772996-249.257536a15.867943 15.867943 0 0 1 4.830832-14.827972l181.089123-176.52667z m-311.085482-117.818636l250.26396 36.365433a16.773724 16.773724 0 0 1 9.292643 28.615973l-181.089123 176.52667c-10.668088 10.399709-18.316906 22.678075-22.912907 36.868645a89.303306 89.303306 0 0 0-3.119912 43.276207l42.739448 249.257537a16.773724 16.773724 0 0 1-24.321899 17.679505l-223.828571-117.684447a89.236211 89.236211 0 0 0-42.169142-10.399709 89.236211 89.236211 0 0 0-42.135594 10.399709L267.708633 948.059259a16.773724 16.773724 0 0 1-24.355447-17.679505l42.739448-249.257537a89.236211 89.236211 0 0 0-3.119913-43.276207 89.303306 89.303306 0 0 0-22.912907-36.902193l-181.089122-176.459575a16.773724 16.773724 0 0 1 9.292643-28.64952l250.26396-36.365433a89.236211 89.236211 0 0 0 40.223389-16.337607c12.043534-8.755884 21.369724-19.826542 27.978572-33.211973l111.914285-226.780747a16.773724 16.773724 0 0 1 30.058513 0l111.914286 226.780747c6.608847 13.385432 15.935038 24.456089 28.012119 33.211973 12.077081 8.722336 25.462513 14.224118 40.189842 16.337607z" fill="#707070" p-id="3084"></path></svg>