<?xml version="1.0" standalone="no"?><!DOCTYPE svg PUBLIC "-//W3C//DTD SVG 1.1//EN" "http://www.w3.org/Graphics/SVG/1.1/DTD/svg11.dtd"><svg t="1774576842538" class="icon" viewBox="0 0 1024 1024" version="1.1" xmlns="http://www.w3.org/2000/svg" p-id="2697" xmlns:xlink="http://www.w3.org/1999/xlink" width="200" height="200"><path d="M900.352 352H138.496a30.72 30.72 0 0 1-30.72-30.72V131.328a30.72 30.72 0 0 1 30.72-30.72h761.856a30.72 30.72 0 0 1 30.72 30.72v189.952a30.72 30.72 0 0 1-30.72 30.72z m-731.136-61.44H870.4v-128H169.216z" fill="" p-id="2698"></path><path d="M833.792 931.84H204.8a30.72 30.72 0 0 1-30.72-30.72V321.28a30.72 30.72 0 0 1 30.72-30.72h628.992a30.72 30.72 0 0 1 30.72 30.72V901.12a30.72 30.72 0 0 1-30.72 30.72zM235.776 870.4h567.296V352H235.776z" fill="" p-id="2699"></path><path d="M686.08 457.728h-332.8a25.6 25.6 0 0 1 0-51.2h332.8a25.6 25.6 0 0 1 0 51.2z" fill="" p-id="2700"></path><path d="M519.424 679.68m-30.976 0a30.976 30.976 0 1 0 61.952 0 30.976 30.976 0 1 0-61.952 0Z" fill="" p-id="2701"></path><path d="M519.424 558.08m-30.976 0a30.976 30.976 0 1 0 61.952 0 30.976 30.976 0 1 0-61.952 0Z" fill="" p-id="2702"></path></svg>