<?xml version="1.0" standalone="no"?><!DOCTYPE svg PUBLIC "-//W3C//DTD SVG 1.1//EN" "http://www.w3.org/Graphics/SVG/1.1/DTD/svg11.dtd"><svg t="1774576875095" class="icon" viewBox="0 0 1024 1024" version="1.1" xmlns="http://www.w3.org/2000/svg" p-id="4777" xmlns:xlink="http://www.w3.org/1999/xlink" width="200" height="200"><path d="M809.984 279.552H83.968c-12.288 0-22.528 10.24-22.528 22.528v495.104c0 12.288 10.24 22.528 22.528 22.528h174.08v115.2c0 8.704 5.12 16.896 13.312 20.48 3.072 1.536 6.144 2.048 9.216 2.048 5.12 0 10.752-2.048 14.848-5.632L448 819.712h361.984c12.288 0 22.528-10.24 22.528-22.528V302.08c0-12.288-9.728-22.528-22.528-22.528z m-37.376 487.936h-332.8c-5.12 0-10.24 2.048-14.336 5.12L309.248 873.472v-84.48c0-11.776-9.728-21.504-21.504-21.504h-166.4V336.896h651.264v430.592z" fill="" p-id="4778"></path><path d="M652.288 479.744h-409.6c-12.288 0-22.528-12.288-22.528-27.648s10.24-27.648 22.528-27.648h409.6c12.288 0 22.528 12.288 22.528 27.648s-10.24 27.648-22.528 27.648zM541.184 655.36H247.296c-15.36 0-28.16-12.288-28.16-27.648s12.288-27.648 28.16-27.648h293.888a27.533 27.533 0 0 1 27.648 27.648 27.533 27.533 0 0 1-27.648 27.648z" fill="" p-id="4779"></path><path d="M933.376 128H220.16c-15.872 0-28.672 12.8-28.672 28.672v88.576c0 3.584 3.072 6.144 6.144 6.144h47.104c3.584 0 6.144-3.072 6.144-6.144v-53.76c0-3.584 3.072-6.144 6.144-6.144H896c3.584 0 6.144 3.072 6.144 6.144V609.28c0 3.584-3.072 6.144-6.144 6.144h-22.528c-3.584 0-6.144 3.072-6.144 6.144v39.936c0 3.584 3.072 6.144 6.144 6.144h59.904c15.872 0 29.184-12.8 29.184-29.184V156.672c0-15.872-13.312-28.672-29.184-28.672z" fill="" p-id="4780"></path></svg>